<mxfile host="www.draw.io" modified="2019-11-04T14:30:52.610Z" agent="Mozilla/5.0 (Windows NT 10.0; Win64; x64) AppleWebKit/537.36 (KHTML, like Gecko) Chrome/78.0.3904.87 Safari/537.36" etag="HOFL3SvKFyGGOuV44AeW" version="12.2.0" type="github" pages="1">
  <diagram id="tvQMerhDm3LdGm9NzDrs" name="Page-1">
    <mxGraphModel dx="942" dy="2281" grid="1" gridSize="20" guides="1" tooltips="1" connect="1" arrows="1" fold="1" page="1" pageScale="1" pageWidth="850" pageHeight="1100" math="0" shadow="0">
      <root>
        <mxCell id="0"/>
        <mxCell id="1" parent="0"/>
        <mxCell id="sAivALB6dnysVe63roQ8-1" value="1" style="text;html=1;strokeColor=none;fillColor=none;align=center;verticalAlign=middle;whiteSpace=wrap;rounded=0;" vertex="1" parent="1">
          <mxGeometry x="180" y="115" width="40" height="20" as="geometry"/>
        </mxCell>
        <mxCell id="sAivALB6dnysVe63roQ8-3" value="1" style="text;html=1;strokeColor=none;fillColor=none;align=center;verticalAlign=middle;whiteSpace=wrap;rounded=0;" vertex="1" parent="1">
          <mxGeometry x="420" y="270" width="40" height="20" as="geometry"/>
        </mxCell>
        <mxCell id="sAivALB6dnysVe63roQ8-4" value="1" style="text;html=1;strokeColor=none;fillColor=none;align=center;verticalAlign=middle;whiteSpace=wrap;rounded=0;" vertex="1" parent="1">
          <mxGeometry x="340" y="270" width="40" height="20" as="geometry"/>
        </mxCell>
        <mxCell id="sAivALB6dnysVe63roQ8-5" value="1" style="text;html=1;strokeColor=none;fillColor=none;align=center;verticalAlign=middle;whiteSpace=wrap;rounded=0;" vertex="1" parent="1">
          <mxGeometry x="260" y="270" width="40" height="20" as="geometry"/>
        </mxCell>
        <mxCell id="sAivALB6dnysVe63roQ8-6" value="1" style="text;html=1;strokeColor=none;fillColor=none;align=center;verticalAlign=middle;whiteSpace=wrap;rounded=0;" vertex="1" parent="1">
          <mxGeometry x="180" y="190" width="40" height="20" as="geometry"/>
        </mxCell>
        <mxCell id="sAivALB6dnysVe63roQ8-7" value="1" style="text;html=1;strokeColor=none;fillColor=none;align=center;verticalAlign=middle;whiteSpace=wrap;rounded=0;" vertex="1" parent="1">
          <mxGeometry x="180" y="270" width="40" height="20" as="geometry"/>
        </mxCell>
        <mxCell id="sAivALB6dnysVe63roQ8-8" value="1" style="text;html=1;strokeColor=none;fillColor=none;align=center;verticalAlign=middle;whiteSpace=wrap;rounded=0;" vertex="1" parent="1">
          <mxGeometry x="420" y="355" width="40" height="20" as="geometry"/>
        </mxCell>
        <mxCell id="sAivALB6dnysVe63roQ8-9" value="1" style="text;html=1;strokeColor=none;fillColor=none;align=center;verticalAlign=middle;whiteSpace=wrap;rounded=0;" vertex="1" parent="1">
          <mxGeometry x="420" y="440" width="40" height="20" as="geometry"/>
        </mxCell>
        <mxCell id="sAivALB6dnysVe63roQ8-10" value="0" style="text;html=1;strokeColor=none;fillColor=none;align=center;verticalAlign=middle;whiteSpace=wrap;rounded=0;" vertex="1" parent="1">
          <mxGeometry x="260" y="115" width="40" height="20" as="geometry"/>
        </mxCell>
        <mxCell id="sAivALB6dnysVe63roQ8-11" value="0" style="text;html=1;strokeColor=none;fillColor=none;align=center;verticalAlign=middle;whiteSpace=wrap;rounded=0;" vertex="1" parent="1">
          <mxGeometry x="260" y="190" width="40" height="20" as="geometry"/>
        </mxCell>
        <mxCell id="sAivALB6dnysVe63roQ8-12" value="0" style="text;html=1;strokeColor=none;fillColor=none;align=center;verticalAlign=middle;whiteSpace=wrap;rounded=0;" vertex="1" parent="1">
          <mxGeometry x="420" y="110" width="40" height="20" as="geometry"/>
        </mxCell>
        <mxCell id="sAivALB6dnysVe63roQ8-13" value="0" style="text;html=1;strokeColor=none;fillColor=none;align=center;verticalAlign=middle;whiteSpace=wrap;rounded=0;" vertex="1" parent="1">
          <mxGeometry x="420" y="190" width="40" height="20" as="geometry"/>
        </mxCell>
        <mxCell id="sAivALB6dnysVe63roQ8-14" value="0" style="text;html=1;strokeColor=none;fillColor=none;align=center;verticalAlign=middle;whiteSpace=wrap;rounded=0;" vertex="1" parent="1">
          <mxGeometry x="340" y="190" width="40" height="20" as="geometry"/>
        </mxCell>
        <mxCell id="sAivALB6dnysVe63roQ8-15" value="0" style="text;html=1;strokeColor=none;fillColor=none;align=center;verticalAlign=middle;whiteSpace=wrap;rounded=0;" vertex="1" parent="1">
          <mxGeometry x="340" y="115" width="40" height="20" as="geometry"/>
        </mxCell>
        <mxCell id="sAivALB6dnysVe63roQ8-16" value="0" style="text;html=1;strokeColor=none;fillColor=none;align=center;verticalAlign=middle;whiteSpace=wrap;rounded=0;" vertex="1" parent="1">
          <mxGeometry x="340" y="355" width="40" height="20" as="geometry"/>
        </mxCell>
        <mxCell id="sAivALB6dnysVe63roQ8-17" value="0" style="text;html=1;strokeColor=none;fillColor=none;align=center;verticalAlign=middle;whiteSpace=wrap;rounded=0;" vertex="1" parent="1">
          <mxGeometry x="340" y="440" width="40" height="20" as="geometry"/>
        </mxCell>
        <mxCell id="sAivALB6dnysVe63roQ8-18" value="0" style="text;html=1;strokeColor=none;fillColor=none;align=center;verticalAlign=middle;whiteSpace=wrap;rounded=0;" vertex="1" parent="1">
          <mxGeometry x="260" y="355" width="40" height="20" as="geometry"/>
        </mxCell>
        <mxCell id="sAivALB6dnysVe63roQ8-19" value="0" style="text;html=1;strokeColor=none;fillColor=none;align=center;verticalAlign=middle;whiteSpace=wrap;rounded=0;" vertex="1" parent="1">
          <mxGeometry x="260" y="440" width="40" height="20" as="geometry"/>
        </mxCell>
        <mxCell id="sAivALB6dnysVe63roQ8-20" value="0" style="text;html=1;strokeColor=none;fillColor=none;align=center;verticalAlign=middle;whiteSpace=wrap;rounded=0;" vertex="1" parent="1">
          <mxGeometry x="180" y="355" width="40" height="20" as="geometry"/>
        </mxCell>
        <mxCell id="sAivALB6dnysVe63roQ8-21" value="0" style="text;html=1;strokeColor=none;fillColor=none;align=center;verticalAlign=middle;whiteSpace=wrap;rounded=0;" vertex="1" parent="1">
          <mxGeometry x="180" y="440" width="40" height="20" as="geometry"/>
        </mxCell>
        <mxCell id="sAivALB6dnysVe63roQ8-22" value="0" style="text;html=1;strokeColor=none;fillColor=none;align=center;verticalAlign=middle;whiteSpace=wrap;rounded=0;" vertex="1" parent="1">
          <mxGeometry x="100" y="115" width="40" height="20" as="geometry"/>
        </mxCell>
        <mxCell id="sAivALB6dnysVe63roQ8-23" value="0" style="text;html=1;strokeColor=none;fillColor=none;align=center;verticalAlign=middle;whiteSpace=wrap;rounded=0;perimeterSpacing=1;fontSize=12;" vertex="1" parent="1">
          <mxGeometry x="100" y="190" width="40" height="20" as="geometry"/>
        </mxCell>
        <mxCell id="sAivALB6dnysVe63roQ8-24" value="0" style="text;html=1;strokeColor=none;fillColor=none;align=center;verticalAlign=middle;whiteSpace=wrap;rounded=0;" vertex="1" parent="1">
          <mxGeometry x="100" y="270" width="40" height="20" as="geometry"/>
        </mxCell>
        <mxCell id="sAivALB6dnysVe63roQ8-25" value="0" style="text;html=1;strokeColor=none;fillColor=none;align=center;verticalAlign=middle;whiteSpace=wrap;rounded=0;" vertex="1" parent="1">
          <mxGeometry x="100" y="355" width="40" height="20" as="geometry"/>
        </mxCell>
        <mxCell id="sAivALB6dnysVe63roQ8-26" value="0" style="text;html=1;strokeColor=none;fillColor=none;align=center;verticalAlign=middle;whiteSpace=wrap;rounded=0;" vertex="1" parent="1">
          <mxGeometry x="100" y="440" width="40" height="20" as="geometry"/>
        </mxCell>
        <mxCell id="sAivALB6dnysVe63roQ8-27" value="0" style="text;html=1;strokeColor=none;fillColor=none;align=center;verticalAlign=middle;whiteSpace=wrap;rounded=0;" vertex="1" parent="1">
          <mxGeometry x="100" y="40" width="40" height="20" as="geometry"/>
        </mxCell>
        <mxCell id="sAivALB6dnysVe63roQ8-28" value="0" style="text;html=1;strokeColor=none;fillColor=none;align=center;verticalAlign=middle;whiteSpace=wrap;rounded=0;" vertex="1" parent="1">
          <mxGeometry x="180" y="40" width="40" height="20" as="geometry"/>
        </mxCell>
        <mxCell id="sAivALB6dnysVe63roQ8-29" value="0" style="text;html=1;strokeColor=none;fillColor=none;align=center;verticalAlign=middle;whiteSpace=wrap;rounded=0;" vertex="1" parent="1">
          <mxGeometry x="260" y="40" width="40" height="20" as="geometry"/>
        </mxCell>
        <mxCell id="sAivALB6dnysVe63roQ8-30" value="0" style="text;html=1;strokeColor=none;fillColor=none;align=center;verticalAlign=middle;whiteSpace=wrap;rounded=0;" vertex="1" parent="1">
          <mxGeometry x="340" y="40" width="40" height="20" as="geometry"/>
        </mxCell>
        <mxCell id="sAivALB6dnysVe63roQ8-31" value="0" style="text;html=1;strokeColor=none;fillColor=none;align=center;verticalAlign=middle;whiteSpace=wrap;rounded=0;" vertex="1" parent="1">
          <mxGeometry x="420" y="40" width="40" height="20" as="geometry"/>
        </mxCell>
        <mxCell id="sAivALB6dnysVe63roQ8-32" value="0" style="text;html=1;strokeColor=none;fillColor=none;align=center;verticalAlign=middle;whiteSpace=wrap;rounded=0;" vertex="1" parent="1">
          <mxGeometry x="500" y="40" width="40" height="20" as="geometry"/>
        </mxCell>
        <mxCell id="sAivALB6dnysVe63roQ8-33" value="0" style="text;html=1;strokeColor=none;fillColor=none;align=center;verticalAlign=middle;whiteSpace=wrap;rounded=0;" vertex="1" parent="1">
          <mxGeometry x="500" y="110" width="40" height="20" as="geometry"/>
        </mxCell>
        <mxCell id="sAivALB6dnysVe63roQ8-34" value="0" style="text;html=1;strokeColor=none;fillColor=none;align=center;verticalAlign=middle;whiteSpace=wrap;rounded=0;" vertex="1" parent="1">
          <mxGeometry x="500" y="190" width="40" height="20" as="geometry"/>
        </mxCell>
        <mxCell id="sAivALB6dnysVe63roQ8-35" value="0" style="text;html=1;strokeColor=none;fillColor=none;align=center;verticalAlign=middle;whiteSpace=wrap;rounded=0;" vertex="1" parent="1">
          <mxGeometry x="500" y="270" width="40" height="20" as="geometry"/>
        </mxCell>
        <mxCell id="sAivALB6dnysVe63roQ8-36" value="0" style="text;html=1;strokeColor=none;fillColor=none;align=center;verticalAlign=middle;whiteSpace=wrap;rounded=0;" vertex="1" parent="1">
          <mxGeometry x="500" y="355" width="40" height="20" as="geometry"/>
        </mxCell>
        <mxCell id="sAivALB6dnysVe63roQ8-37" value="0" style="text;html=1;strokeColor=none;fillColor=none;align=center;verticalAlign=middle;whiteSpace=wrap;rounded=0;" vertex="1" parent="1">
          <mxGeometry x="500" y="440" width="40" height="20" as="geometry"/>
        </mxCell>
        <mxCell id="sAivALB6dnysVe63roQ8-38" value="0" style="text;html=1;strokeColor=none;fillColor=none;align=center;verticalAlign=middle;whiteSpace=wrap;rounded=0;" vertex="1" parent="1">
          <mxGeometry x="500" y="520" width="40" height="20" as="geometry"/>
        </mxCell>
        <mxCell id="sAivALB6dnysVe63roQ8-39" value="0" style="text;html=1;strokeColor=none;fillColor=none;align=center;verticalAlign=middle;whiteSpace=wrap;rounded=0;" vertex="1" parent="1">
          <mxGeometry x="420" y="520" width="40" height="20" as="geometry"/>
        </mxCell>
        <mxCell id="sAivALB6dnysVe63roQ8-40" value="0" style="text;html=1;strokeColor=none;fillColor=none;align=center;verticalAlign=middle;whiteSpace=wrap;rounded=0;" vertex="1" parent="1">
          <mxGeometry x="340" y="520" width="40" height="20" as="geometry"/>
        </mxCell>
        <mxCell id="sAivALB6dnysVe63roQ8-41" value="0" style="text;html=1;strokeColor=none;fillColor=none;align=center;verticalAlign=middle;whiteSpace=wrap;rounded=0;" vertex="1" parent="1">
          <mxGeometry x="260" y="520" width="40" height="20" as="geometry"/>
        </mxCell>
        <mxCell id="sAivALB6dnysVe63roQ8-42" value="0" style="text;html=1;strokeColor=none;fillColor=none;align=center;verticalAlign=middle;whiteSpace=wrap;rounded=0;" vertex="1" parent="1">
          <mxGeometry x="180" y="520" width="40" height="20" as="geometry"/>
        </mxCell>
        <mxCell id="sAivALB6dnysVe63roQ8-43" value="0" style="text;html=1;strokeColor=none;fillColor=none;align=center;verticalAlign=middle;whiteSpace=wrap;rounded=0;" vertex="1" parent="1">
          <mxGeometry x="100" y="520" width="40" height="20" as="geometry"/>
        </mxCell>
      </root>
    </mxGraphModel>
  </diagram>
</mxfile>
